<svg id="visual" viewBox="0 0 900 300" width="900" height="300" xmlns="http://www.w3.org/2000/svg" xmlns:xlink="http://www.w3.org/1999/xlink" version="1.1"><path d="M0 120L21.5 117.8C43 115.7 86 111.3 128.8 109C171.7 106.7 214.3 106.3 257.2 108.8C300 111.3 343 116.7 385.8 119C428.7 121.3 471.3 120.7 514.2 115.7C557 110.7 600 101.3 642.8 93.8C685.7 86.3 728.3 80.7 771.2 78.2C814 75.7 857 76.3 878.5 76.7L900 77L900 0L878.5 0C857 0 814 0 771.2 0C728.3 0 685.7 0 642.8 0C600 0 557 0 514.2 0C471.3 0 428.7 0 385.8 0C343 0 300 0 257.2 0C214.3 0 171.7 0 128.8 0C86 0 43 0 21.5 0L0 0Z" fill="#fa7268"></path><path d="M0 93L21.5 92.5C43 92 86 91 128.8 86.8C171.7 82.7 214.3 75.3 257.2 70.3C300 65.3 343 62.7 385.8 65C428.7 67.3 471.3 74.7 514.2 81.7C557 88.7 600 95.3 642.8 98C685.7 100.7 728.3 99.3 771.2 93C814 86.7 857 75.3 878.5 69.7L900 64L900 0L878.5 0C857 0 814 0 771.2 0C728.3 0 685.7 0 642.8 0C600 0 557 0 514.2 0C471.3 0 428.7 0 385.8 0C343 0 300 0 257.2 0C214.3 0 171.7 0 128.8 0C86 0 43 0 21.5 0L0 0Z" fill="#ef5f67"></path><path d="M0 48L21.5 47.5C43 47 86 46 128.8 47.7C171.7 49.3 214.3 53.7 257.2 56.5C300 59.3 343 60.7 385.8 64C428.7 67.3 471.3 72.7 514.2 71C557 69.3 600 60.7 642.8 56.2C685.7 51.7 728.3 51.3 771.2 54.8C814 58.3 857 65.7 878.5 69.3L900 73L900 0L878.5 0C857 0 814 0 771.2 0C728.3 0 685.7 0 642.8 0C600 0 557 0 514.2 0C471.3 0 428.7 0 385.8 0C343 0 300 0 257.2 0C214.3 0 171.7 0 128.8 0C86 0 43 0 21.5 0L0 0Z" fill="#e34c67"></path><path d="M0 27L21.5 30.3C43 33.7 86 40.3 128.8 41.7C171.7 43 214.3 39 257.2 40.8C300 42.7 343 50.3 385.8 54.2C428.7 58 471.3 58 514.2 53.3C557 48.7 600 39.3 642.8 36.2C685.7 33 728.3 36 771.2 39.8C814 43.7 857 48.3 878.5 50.7L900 53L900 0L878.5 0C857 0 814 0 771.2 0C728.3 0 685.7 0 642.8 0C600 0 557 0 514.2 0C471.3 0 428.7 0 385.8 0C343 0 300 0 257.2 0C214.3 0 171.7 0 128.8 0C86 0 43 0 21.5 0L0 0Z" fill="#d53867"></path><path d="M0 24L21.5 25C43 26 86 28 128.8 29.3C171.7 30.7 214.3 31.3 257.2 31.5C300 31.7 343 31.3 385.8 30.2C428.7 29 471.3 27 514.2 27.5C557 28 600 31 642.8 32.7C685.7 34.3 728.3 34.7 771.2 33.8C814 33 857 31 878.5 30L900 29L900 0L878.5 0C857 0 814 0 771.2 0C728.3 0 685.7 0 642.8 0C600 0 557 0 514.2 0C471.3 0 428.7 0 385.8 0C343 0 300 0 257.2 0C214.3 0 171.7 0 128.8 0C86 0 43 0 21.5 0L0 0Z" fill="#c62368"></path></svg>