<svg id="visual" viewBox="0 0 900 300" width="900" height="300" xmlns="http://www.w3.org/2000/svg" xmlns:xlink="http://www.w3.org/1999/xlink" version="1.1"><path d="M0 43L13.7 44C27.3 45 54.7 47 82 48.5C109.3 50 136.7 51 163.8 53C191 55 218 58 245.2 59.5C272.3 61 299.7 61 327 57C354.3 53 381.7 45 409 39.5C436.3 34 463.7 31 491 29C518.3 27 545.7 26 573 25.5C600.3 25 627.7 25 654.8 27.5C682 30 709 35 736.2 39.5C763.3 44 790.7 48 818 48C845.3 48 872.7 44 886.3 42L900 40L900 0L886.3 0C872.7 0 845.3 0 818 0C790.7 0 763.3 0 736.2 0C709 0 682 0 654.8 0C627.7 0 600.3 0 573 0C545.7 0 518.3 0 491 0C463.7 0 436.3 0 409 0C381.7 0 354.3 0 327 0C299.7 0 272.3 0 245.2 0C218 0 191 0 163.8 0C136.7 0 109.3 0 82 0C54.7 0 27.3 0 13.7 0L0 0Z" fill="#6198ff"></path><path d="M0 106L13.7 108C27.3 110 54.7 114 82 119C109.3 124 136.7 130 163.8 137C191 144 218 152 245.2 152C272.3 152 299.7 144 327 140.5C354.3 137 381.7 138 409 140.5C436.3 143 463.7 147 491 139C518.3 131 545.7 111 573 103C600.3 95 627.7 99 654.8 105.5C682 112 709 121 736.2 128.5C763.3 136 790.7 142 818 142C845.3 142 872.7 136 886.3 133L900 130L900 38L886.3 40C872.7 42 845.3 46 818 46C790.7 46 763.3 42 736.2 37.5C709 33 682 28 654.8 25.5C627.7 23 600.3 23 573 23.5C545.7 24 518.3 25 491 27C463.7 29 436.3 32 409 37.5C381.7 43 354.3 51 327 55C299.7 59 272.3 59 245.2 57.5C218 56 191 53 163.8 51C136.7 49 109.3 48 82 46.5C54.7 45 27.3 43 13.7 42L0 41Z" fill="#3c80ff"></path><path d="M0 175L13.7 171C27.3 167 54.7 159 82 156.5C109.3 154 136.7 157 163.8 170.5C191 184 218 208 245.2 209.5C272.3 211 299.7 190 327 187C354.3 184 381.7 199 409 202C436.3 205 463.7 196 491 186C518.3 176 545.7 165 573 165C600.3 165 627.7 176 654.8 179C682 182 709 177 736.2 181.5C763.3 186 790.7 200 818 200C845.3 200 872.7 186 886.3 179L900 172L900 128L886.3 131C872.7 134 845.3 140 818 140C790.7 140 763.3 134 736.2 126.5C709 119 682 110 654.8 103.5C627.7 97 600.3 93 573 101C545.7 109 518.3 129 491 137C463.7 145 436.3 141 409 138.5C381.7 136 354.3 135 327 138.5C299.7 142 272.3 150 245.2 150C218 150 191 142 163.8 135C136.7 128 109.3 122 82 117C54.7 112 27.3 108 13.7 106L0 104Z" fill="#0066ff"></path><path d="M0 214L13.7 212C27.3 210 54.7 206 82 204C109.3 202 136.7 202 163.8 213.5C191 225 218 248 245.2 250C272.3 252 299.7 233 327 226.5C354.3 220 381.7 226 409 228.5C436.3 231 463.7 230 491 223C518.3 216 545.7 203 573 199.5C600.3 196 627.7 202 654.8 206C682 210 709 212 736.2 217C763.3 222 790.7 230 818 229C845.3 228 872.7 218 886.3 213L900 208L900 170L886.3 177C872.7 184 845.3 198 818 198C790.7 198 763.3 184 736.2 179.5C709 175 682 180 654.8 177C627.7 174 600.3 163 573 163C545.7 163 518.3 174 491 184C463.7 194 436.3 203 409 200C381.7 197 354.3 182 327 185C299.7 188 272.3 209 245.2 207.5C218 206 191 182 163.8 168.5C136.7 155 109.3 152 82 154.5C54.7 157 27.3 165 13.7 169L0 173Z" fill="#0059dd"></path><path d="M0 301L13.7 301C27.3 301 54.7 301 82 301C109.3 301 136.7 301 163.8 301C191 301 218 301 245.2 301C272.3 301 299.7 301 327 301C354.3 301 381.7 301 409 301C436.3 301 463.7 301 491 301C518.3 301 545.7 301 573 301C600.3 301 627.7 301 654.8 301C682 301 709 301 736.2 301C763.3 301 790.7 301 818 301C845.3 301 872.7 301 886.3 301L900 301L900 206L886.3 211C872.7 216 845.3 226 818 227C790.7 228 763.3 220 736.2 215C709 210 682 208 654.8 204C627.7 200 600.3 194 573 197.5C545.7 201 518.3 214 491 221C463.7 228 436.3 229 409 226.5C381.7 224 354.3 218 327 224.5C299.7 231 272.3 250 245.2 248C218 246 191 223 163.8 211.5C136.7 200 109.3 200 82 202C54.7 204 27.3 208 13.7 210L0 212Z" fill="#004cbb"></path></svg>