<svg id="visual" viewBox="0 0 900 300" width="900" height="300" xmlns="http://www.w3.org/2000/svg" xmlns:xlink="http://www.w3.org/1999/xlink" version="1.1"><rect x="0" y="0" width="900" height="300" fill="#ffffff"></rect><path d="M0 61L21.5 64.5C43 68 86 75 128.8 81.3C171.7 87.7 214.3 93.3 257.2 95.3C300 97.3 343 95.7 385.8 87.2C428.7 78.7 471.3 63.3 514.2 65.3C557 67.3 600 86.7 642.8 87.5C685.7 88.3 728.3 70.7 771.2 62.8C814 55 857 57 878.5 58L900 59L900 0L878.5 0C857 0 814 0 771.2 0C728.3 0 685.7 0 642.8 0C600 0 557 0 514.2 0C471.3 0 428.7 0 385.8 0C343 0 300 0 257.2 0C214.3 0 171.7 0 128.8 0C86 0 43 0 21.5 0L0 0Z" fill="#0066FF" stroke-linecap="round" stroke-linejoin="miter"></path></svg>